<mxfile host="app.diagrams.net" agent="Mozilla/5.0 (Macintosh; Intel Mac OS X 10_15_7) AppleWebKit/537.36 (KHTML, like Gecko) Chrome/137.0.0.0 Safari/537.36 Edg/137.0.0.0" version="27.1.6">
  <diagram name="第 1 页" id="UjdoN_yO7u_s7miZdj-9">
    <mxGraphModel dx="1949" dy="731" grid="1" gridSize="10" guides="1" tooltips="1" connect="1" arrows="1" fold="1" page="1" pageScale="1" pageWidth="827" pageHeight="1169" math="0" shadow="0">
      <root>
        <mxCell id="0" />
        <mxCell id="1" parent="0" />
        <mxCell id="mAtXb0K_o6JOtv1EFaET-3" value="edu" style="rounded=0;whiteSpace=wrap;html=1;fontSize=13;fillColor=#CCCCCC;" vertex="1" parent="1">
          <mxGeometry x="80" y="80" width="90" height="40" as="geometry" />
        </mxCell>
        <mxCell id="mAtXb0K_o6JOtv1EFaET-9" value="High_school" style="rounded=0;whiteSpace=wrap;html=1;fontSize=13;fillColor=#0000CC;gradientColor=none;fillStyle=hatch;" vertex="1" parent="1">
          <mxGeometry x="80" y="120" width="90" height="40" as="geometry" />
        </mxCell>
        <mxCell id="mAtXb0K_o6JOtv1EFaET-10" value="Bachelor" style="rounded=0;whiteSpace=wrap;html=1;fontSize=13;fillColor=#F09148;gradientColor=none;fillStyle=hatch;" vertex="1" parent="1">
          <mxGeometry x="80" y="160" width="90" height="40" as="geometry" />
        </mxCell>
        <mxCell id="mAtXb0K_o6JOtv1EFaET-11" value="Master" style="rounded=0;whiteSpace=wrap;html=1;fontSize=13;fillColor=#00CC00;gradientColor=none;fillStyle=hatch;" vertex="1" parent="1">
          <mxGeometry x="80" y="200" width="90" height="40" as="geometry" />
        </mxCell>
        <mxCell id="mAtXb0K_o6JOtv1EFaET-12" value="PhD" style="rounded=0;whiteSpace=wrap;html=1;fontSize=13;fillColor=#3399FF;gradientColor=none;fillStyle=hatch;" vertex="1" parent="1">
          <mxGeometry x="80" y="240" width="90" height="40" as="geometry" />
        </mxCell>
        <mxCell id="mAtXb0K_o6JOtv1EFaET-13" value="Others" style="rounded=0;whiteSpace=wrap;html=1;fontSize=13;fillColor=#FF0080;gradientColor=none;fillStyle=hatch;" vertex="1" parent="1">
          <mxGeometry x="80" y="280" width="90" height="40" as="geometry" />
        </mxCell>
        <mxCell id="mAtXb0K_o6JOtv1EFaET-14" value="Original" style="text;html=1;align=center;verticalAlign=middle;whiteSpace=wrap;rounded=0;fontSize=16;" vertex="1" parent="1">
          <mxGeometry x="95" y="30" width="60" height="30" as="geometry" />
        </mxCell>
        <mxCell id="mAtXb0K_o6JOtv1EFaET-15" value="sample_id" style="rounded=0;whiteSpace=wrap;html=1;fontSize=13;fillColor=#CCCCCC;" vertex="1" parent="1">
          <mxGeometry x="-10" y="80" width="90" height="40" as="geometry" />
        </mxCell>
        <mxCell id="mAtXb0K_o6JOtv1EFaET-16" value="1" style="rounded=0;whiteSpace=wrap;html=1;fontSize=13;fillColor=#FFFFFF;" vertex="1" parent="1">
          <mxGeometry x="-10" y="120" width="90" height="40" as="geometry" />
        </mxCell>
        <mxCell id="mAtXb0K_o6JOtv1EFaET-17" value="2" style="rounded=0;whiteSpace=wrap;html=1;fontSize=13;fillColor=#FFFFFF;" vertex="1" parent="1">
          <mxGeometry x="-10" y="160" width="90" height="40" as="geometry" />
        </mxCell>
        <mxCell id="mAtXb0K_o6JOtv1EFaET-18" value="3" style="rounded=0;whiteSpace=wrap;html=1;fontSize=13;fillColor=#FFFFFF;" vertex="1" parent="1">
          <mxGeometry x="-10" y="200" width="90" height="40" as="geometry" />
        </mxCell>
        <mxCell id="mAtXb0K_o6JOtv1EFaET-19" value="4" style="rounded=0;whiteSpace=wrap;html=1;fontSize=13;fillColor=#FFFFFF;" vertex="1" parent="1">
          <mxGeometry x="-10" y="240" width="90" height="40" as="geometry" />
        </mxCell>
        <mxCell id="mAtXb0K_o6JOtv1EFaET-20" value="5" style="rounded=0;whiteSpace=wrap;html=1;fontSize=13;fillColor=#FFFFFF;" vertex="1" parent="1">
          <mxGeometry x="-10" y="280" width="90" height="40" as="geometry" />
        </mxCell>
        <mxCell id="mAtXb0K_o6JOtv1EFaET-21" value="age" style="rounded=0;whiteSpace=wrap;html=1;fontSize=13;fillColor=#CCCCCC;" vertex="1" parent="1">
          <mxGeometry x="170" y="80" width="90" height="40" as="geometry" />
        </mxCell>
        <mxCell id="mAtXb0K_o6JOtv1EFaET-22" value="40" style="rounded=0;whiteSpace=wrap;html=1;fontSize=13;fillColor=#FFFFFF;" vertex="1" parent="1">
          <mxGeometry x="170" y="120" width="90" height="40" as="geometry" />
        </mxCell>
        <mxCell id="mAtXb0K_o6JOtv1EFaET-23" value="25" style="rounded=0;whiteSpace=wrap;html=1;fontSize=13;fillColor=#FFFFFF;" vertex="1" parent="1">
          <mxGeometry x="170" y="160" width="90" height="40" as="geometry" />
        </mxCell>
        <mxCell id="mAtXb0K_o6JOtv1EFaET-24" value="38" style="rounded=0;whiteSpace=wrap;html=1;fontSize=13;fillColor=#FFFFFF;" vertex="1" parent="1">
          <mxGeometry x="170" y="200" width="90" height="40" as="geometry" />
        </mxCell>
        <mxCell id="mAtXb0K_o6JOtv1EFaET-25" value="30" style="rounded=0;whiteSpace=wrap;html=1;fontSize=13;fillColor=#FFFFFF;" vertex="1" parent="1">
          <mxGeometry x="170" y="240" width="90" height="40" as="geometry" />
        </mxCell>
        <mxCell id="mAtXb0K_o6JOtv1EFaET-26" value="25" style="rounded=0;whiteSpace=wrap;html=1;fontSize=13;fillColor=#FFFFFF;" vertex="1" parent="1">
          <mxGeometry x="170" y="280" width="90" height="40" as="geometry" />
        </mxCell>
        <mxCell id="mAtXb0K_o6JOtv1EFaET-27" value="sample_id" style="rounded=0;whiteSpace=wrap;html=1;fontSize=13;fillColor=#CCCCCC;" vertex="1" parent="1">
          <mxGeometry x="400" y="80" width="90" height="40" as="geometry" />
        </mxCell>
        <mxCell id="mAtXb0K_o6JOtv1EFaET-28" value="1" style="rounded=0;whiteSpace=wrap;html=1;fontSize=13;fillColor=#FFFFFF;" vertex="1" parent="1">
          <mxGeometry x="400" y="120" width="90" height="40" as="geometry" />
        </mxCell>
        <mxCell id="mAtXb0K_o6JOtv1EFaET-29" value="2" style="rounded=0;whiteSpace=wrap;html=1;fontSize=13;fillColor=#FFFFFF;" vertex="1" parent="1">
          <mxGeometry x="400" y="160" width="90" height="40" as="geometry" />
        </mxCell>
        <mxCell id="mAtXb0K_o6JOtv1EFaET-30" value="3" style="rounded=0;whiteSpace=wrap;html=1;fontSize=13;fillColor=#FFFFFF;" vertex="1" parent="1">
          <mxGeometry x="400" y="200" width="90" height="40" as="geometry" />
        </mxCell>
        <mxCell id="mAtXb0K_o6JOtv1EFaET-31" value="4" style="rounded=0;whiteSpace=wrap;html=1;fontSize=13;fillColor=#FFFFFF;" vertex="1" parent="1">
          <mxGeometry x="400" y="240" width="90" height="40" as="geometry" />
        </mxCell>
        <mxCell id="mAtXb0K_o6JOtv1EFaET-32" value="5" style="rounded=0;whiteSpace=wrap;html=1;fontSize=13;fillColor=#FFFFFF;" vertex="1" parent="1">
          <mxGeometry x="400" y="280" width="90" height="40" as="geometry" />
        </mxCell>
        <mxCell id="mAtXb0K_o6JOtv1EFaET-33" value="edu_1" style="rounded=0;whiteSpace=wrap;html=1;fontSize=13;fillColor=#CCCCCC;" vertex="1" parent="1">
          <mxGeometry x="490" y="80" width="90" height="40" as="geometry" />
        </mxCell>
        <mxCell id="mAtXb0K_o6JOtv1EFaET-35" value="0" style="rounded=0;whiteSpace=wrap;html=1;fontSize=13;fillColor=#FFFFFF;" vertex="1" parent="1">
          <mxGeometry x="490" y="160" width="90" height="40" as="geometry" />
        </mxCell>
        <mxCell id="mAtXb0K_o6JOtv1EFaET-36" value="0" style="rounded=0;whiteSpace=wrap;html=1;fontSize=13;fillColor=#FFFFFF;" vertex="1" parent="1">
          <mxGeometry x="490" y="200" width="90" height="40" as="geometry" />
        </mxCell>
        <mxCell id="mAtXb0K_o6JOtv1EFaET-37" value="0" style="rounded=0;whiteSpace=wrap;html=1;fontSize=13;fillColor=#FFFFFF;" vertex="1" parent="1">
          <mxGeometry x="490" y="240" width="90" height="40" as="geometry" />
        </mxCell>
        <mxCell id="mAtXb0K_o6JOtv1EFaET-38" value="0" style="rounded=0;whiteSpace=wrap;html=1;fontSize=13;fillColor=#FFFFFF;" vertex="1" parent="1">
          <mxGeometry x="490" y="280" width="90" height="40" as="geometry" />
        </mxCell>
        <mxCell id="mAtXb0K_o6JOtv1EFaET-39" value="edu_2" style="rounded=0;whiteSpace=wrap;html=1;fontSize=13;fillColor=#CCCCCC;" vertex="1" parent="1">
          <mxGeometry x="580" y="80" width="90" height="40" as="geometry" />
        </mxCell>
        <mxCell id="mAtXb0K_o6JOtv1EFaET-40" value="0" style="rounded=0;whiteSpace=wrap;html=1;fontSize=13;fillColor=#FFFFFF;" vertex="1" parent="1">
          <mxGeometry x="580" y="120" width="90" height="40" as="geometry" />
        </mxCell>
        <mxCell id="mAtXb0K_o6JOtv1EFaET-42" value="0" style="rounded=0;whiteSpace=wrap;html=1;fontSize=13;fillColor=#FFFFFF;" vertex="1" parent="1">
          <mxGeometry x="580" y="200" width="90" height="40" as="geometry" />
        </mxCell>
        <mxCell id="mAtXb0K_o6JOtv1EFaET-43" value="0" style="rounded=0;whiteSpace=wrap;html=1;fontSize=13;fillColor=#FFFFFF;" vertex="1" parent="1">
          <mxGeometry x="580" y="240" width="90" height="40" as="geometry" />
        </mxCell>
        <mxCell id="mAtXb0K_o6JOtv1EFaET-44" value="0" style="rounded=0;whiteSpace=wrap;html=1;fontSize=13;fillColor=#FFFFFF;" vertex="1" parent="1">
          <mxGeometry x="580" y="280" width="90" height="40" as="geometry" />
        </mxCell>
        <mxCell id="mAtXb0K_o6JOtv1EFaET-45" value="edu_3" style="rounded=0;whiteSpace=wrap;html=1;fontSize=13;fillColor=#CCCCCC;" vertex="1" parent="1">
          <mxGeometry x="670" y="80" width="90" height="40" as="geometry" />
        </mxCell>
        <mxCell id="mAtXb0K_o6JOtv1EFaET-46" value="0" style="rounded=0;whiteSpace=wrap;html=1;fontSize=13;fillColor=#FFFFFF;" vertex="1" parent="1">
          <mxGeometry x="670" y="120" width="90" height="40" as="geometry" />
        </mxCell>
        <mxCell id="mAtXb0K_o6JOtv1EFaET-47" value="0" style="rounded=0;whiteSpace=wrap;html=1;fontSize=13;fillColor=#FFFFFF;" vertex="1" parent="1">
          <mxGeometry x="670" y="160" width="90" height="40" as="geometry" />
        </mxCell>
        <mxCell id="mAtXb0K_o6JOtv1EFaET-49" value="0" style="rounded=0;whiteSpace=wrap;html=1;fontSize=13;fillColor=#FFFFFF;" vertex="1" parent="1">
          <mxGeometry x="670" y="240" width="90" height="40" as="geometry" />
        </mxCell>
        <mxCell id="mAtXb0K_o6JOtv1EFaET-50" value="0" style="rounded=0;whiteSpace=wrap;html=1;fontSize=13;fillColor=#FFFFFF;" vertex="1" parent="1">
          <mxGeometry x="670" y="280" width="90" height="40" as="geometry" />
        </mxCell>
        <mxCell id="mAtXb0K_o6JOtv1EFaET-51" value="edu_4" style="rounded=0;whiteSpace=wrap;html=1;fontSize=13;fillColor=#CCCCCC;" vertex="1" parent="1">
          <mxGeometry x="760" y="80" width="90" height="40" as="geometry" />
        </mxCell>
        <mxCell id="mAtXb0K_o6JOtv1EFaET-52" value="0" style="rounded=0;whiteSpace=wrap;html=1;fontSize=13;fillColor=#FFFFFF;" vertex="1" parent="1">
          <mxGeometry x="760" y="120" width="90" height="40" as="geometry" />
        </mxCell>
        <mxCell id="mAtXb0K_o6JOtv1EFaET-53" value="0" style="rounded=0;whiteSpace=wrap;html=1;fontSize=13;fillColor=#FFFFFF;" vertex="1" parent="1">
          <mxGeometry x="760" y="160" width="90" height="40" as="geometry" />
        </mxCell>
        <mxCell id="mAtXb0K_o6JOtv1EFaET-54" value="0" style="rounded=0;whiteSpace=wrap;html=1;fontSize=13;fillColor=#FFFFFF;" vertex="1" parent="1">
          <mxGeometry x="760" y="200" width="90" height="40" as="geometry" />
        </mxCell>
        <mxCell id="mAtXb0K_o6JOtv1EFaET-56" value="0" style="rounded=0;whiteSpace=wrap;html=1;fontSize=13;fillColor=#FFFFFF;" vertex="1" parent="1">
          <mxGeometry x="760" y="280" width="90" height="40" as="geometry" />
        </mxCell>
        <mxCell id="mAtXb0K_o6JOtv1EFaET-57" value="edu_5" style="rounded=0;whiteSpace=wrap;html=1;fontSize=13;fillColor=#CCCCCC;" vertex="1" parent="1">
          <mxGeometry x="850" y="80" width="90" height="40" as="geometry" />
        </mxCell>
        <mxCell id="mAtXb0K_o6JOtv1EFaET-58" value="0" style="rounded=0;whiteSpace=wrap;html=1;fontSize=13;fillColor=#FFFFFF;" vertex="1" parent="1">
          <mxGeometry x="850" y="120" width="90" height="40" as="geometry" />
        </mxCell>
        <mxCell id="mAtXb0K_o6JOtv1EFaET-59" value="0" style="rounded=0;whiteSpace=wrap;html=1;fontSize=13;fillColor=#FFFFFF;" vertex="1" parent="1">
          <mxGeometry x="850" y="160" width="90" height="40" as="geometry" />
        </mxCell>
        <mxCell id="mAtXb0K_o6JOtv1EFaET-60" value="0" style="rounded=0;whiteSpace=wrap;html=1;fontSize=13;fillColor=#FFFFFF;" vertex="1" parent="1">
          <mxGeometry x="850" y="200" width="90" height="40" as="geometry" />
        </mxCell>
        <mxCell id="mAtXb0K_o6JOtv1EFaET-61" value="0" style="rounded=0;whiteSpace=wrap;html=1;fontSize=13;fillColor=#FFFFFF;" vertex="1" parent="1">
          <mxGeometry x="850" y="240" width="90" height="40" as="geometry" />
        </mxCell>
        <mxCell id="mAtXb0K_o6JOtv1EFaET-63" value="age" style="rounded=0;whiteSpace=wrap;html=1;fontSize=13;fillColor=#CCCCCC;" vertex="1" parent="1">
          <mxGeometry x="940" y="80" width="90" height="40" as="geometry" />
        </mxCell>
        <mxCell id="mAtXb0K_o6JOtv1EFaET-64" value="40" style="rounded=0;whiteSpace=wrap;html=1;fontSize=13;fillColor=#FFFFFF;" vertex="1" parent="1">
          <mxGeometry x="940" y="120" width="90" height="40" as="geometry" />
        </mxCell>
        <mxCell id="mAtXb0K_o6JOtv1EFaET-65" value="25" style="rounded=0;whiteSpace=wrap;html=1;fontSize=13;fillColor=#FFFFFF;" vertex="1" parent="1">
          <mxGeometry x="940" y="160" width="90" height="40" as="geometry" />
        </mxCell>
        <mxCell id="mAtXb0K_o6JOtv1EFaET-66" value="38" style="rounded=0;whiteSpace=wrap;html=1;fontSize=13;fillColor=#FFFFFF;" vertex="1" parent="1">
          <mxGeometry x="940" y="200" width="90" height="40" as="geometry" />
        </mxCell>
        <mxCell id="mAtXb0K_o6JOtv1EFaET-67" value="30" style="rounded=0;whiteSpace=wrap;html=1;fontSize=13;fillColor=#FFFFFF;" vertex="1" parent="1">
          <mxGeometry x="940" y="240" width="90" height="40" as="geometry" />
        </mxCell>
        <mxCell id="mAtXb0K_o6JOtv1EFaET-68" value="25" style="rounded=0;whiteSpace=wrap;html=1;fontSize=13;fillColor=#FFFFFF;" vertex="1" parent="1">
          <mxGeometry x="940" y="280" width="90" height="40" as="geometry" />
        </mxCell>
        <mxCell id="mAtXb0K_o6JOtv1EFaET-69" value="1" style="rounded=0;whiteSpace=wrap;html=1;fontSize=13;fillColor=#0000CC;gradientColor=none;fillStyle=hatch;" vertex="1" parent="1">
          <mxGeometry x="490" y="120" width="90" height="40" as="geometry" />
        </mxCell>
        <mxCell id="mAtXb0K_o6JOtv1EFaET-70" value="2" style="rounded=0;whiteSpace=wrap;html=1;fontSize=13;fillColor=#F09148;gradientColor=none;fillStyle=hatch;" vertex="1" parent="1">
          <mxGeometry x="580" y="160" width="90" height="40" as="geometry" />
        </mxCell>
        <mxCell id="mAtXb0K_o6JOtv1EFaET-71" value="3" style="rounded=0;whiteSpace=wrap;html=1;fontSize=13;fillColor=#00CC00;gradientColor=none;fillStyle=hatch;" vertex="1" parent="1">
          <mxGeometry x="670" y="200" width="90" height="40" as="geometry" />
        </mxCell>
        <mxCell id="mAtXb0K_o6JOtv1EFaET-72" value="4" style="rounded=0;whiteSpace=wrap;html=1;fontSize=13;fillColor=#3399FF;gradientColor=none;fillStyle=hatch;" vertex="1" parent="1">
          <mxGeometry x="760" y="240" width="90" height="40" as="geometry" />
        </mxCell>
        <mxCell id="mAtXb0K_o6JOtv1EFaET-73" value="5" style="rounded=0;whiteSpace=wrap;html=1;fontSize=13;fillColor=#FF0080;gradientColor=none;fillStyle=hatch;" vertex="1" parent="1">
          <mxGeometry x="850" y="280" width="90" height="40" as="geometry" />
        </mxCell>
        <mxCell id="mAtXb0K_o6JOtv1EFaET-74" value="One-hot encoded" style="text;html=1;align=center;verticalAlign=middle;whiteSpace=wrap;rounded=0;fontSize=16;" vertex="1" parent="1">
          <mxGeometry x="632.5" y="30" width="165" height="30" as="geometry" />
        </mxCell>
        <mxCell id="mAtXb0K_o6JOtv1EFaET-76" value="" style="html=1;shadow=0;dashed=0;align=center;verticalAlign=middle;shape=mxgraph.arrows2.arrow;dy=0.58;dx=27.33;notch=0;" vertex="1" parent="1">
          <mxGeometry x="290" y="170" width="80" height="50" as="geometry" />
        </mxCell>
      </root>
    </mxGraphModel>
  </diagram>
</mxfile>
